<svg viewBox="0 0 330 200" xmlns="http://www.w3.org/2000/svg"><g><g><g><g><g><line x1="51.5625" y1="165" x2="46.5625" y2="165" style="visibility: inherit;" fill="rgb(0, 0, 0)" stroke="rgb(204, 204, 204)" stroke-width="1px"></line><line x1="51.5625" y1="148.49999999999997" x2="46.5625" y2="148.49999999999997" style="visibility: inherit;" fill="rgb(0, 0, 0)" stroke="rgb(204, 204, 204)" stroke-width="1px"></line><line x1="51.5625" y1="131.99999999999997" x2="46.5625" y2="131.99999999999997" style="visibility: inherit;" fill="rgb(0, 0, 0)" stroke="rgb(204, 204, 204)" stroke-width="1px"></line><line x1="51.5625" y1="115.49999999999997" x2="46.5625" y2="115.49999999999997" style="visibility: inherit;" fill="rgb(0, 0, 0)" stroke="rgb(204, 204, 204)" stroke-width="1px"></line><line x1="51.5625" y1="98.99999999999996" x2="46.5625" y2="98.99999999999996" style="visibility: inherit;" fill="rgb(0, 0, 0)" stroke="rgb(204, 204, 204)" stroke-width="1px"></line><line x1="51.5625" y1="82.50000000000004" x2="46.5625" y2="82.50000000000004" style="visibility: inherit;" fill="rgb(0, 0, 0)" stroke="rgb(204, 204, 204)" stroke-width="1px"></line><line x1="51.5625" y1="66.00000000000004" x2="46.5625" y2="66.00000000000004" style="visibility: inherit;" fill="rgb(0, 0, 0)" stroke="rgb(204, 204, 204)" stroke-width="1px"></line><line x1="51.5625" y1="49.50000000000003" x2="46.5625" y2="49.50000000000003" style="visibility: inherit;" fill="rgb(0, 0, 0)" stroke="rgb(204, 204, 204)" stroke-width="1px"></line><line x1="51.5625" y1="33.000000000000014" x2="46.5625" y2="33.000000000000014" style="visibility: inherit;" fill="rgb(0, 0, 0)" stroke="rgb(204, 204, 204)" stroke-width="1px"></line><line x1="51.5625" y1="16.500000000000014" x2="46.5625" y2="16.500000000000014" style="visibility: inherit;" fill="rgb(0, 0, 0)" stroke="rgb(204, 204, 204)" stroke-width="1px"></line><line x1="51.5625" y1="0" x2="46.5625" y2="0" style="visibility: inherit;" fill="rgb(0, 0, 0)" stroke="rgb(204, 204, 204)" stroke-width="1px"></line></g><g transform="translate(41.5625, 0)"><text x="0" y="165" dx="0em" dy="0.3em" style="text-anchor: end; visibility: hidden; font-family: Roboto, sans-serif; font-size: 12px; font-weight: 200;" fill="rgb(33, 33, 33)" stroke="none" stroke-width="1px">0.72</text><text x="0" y="148.49999999999997" dx="0em" dy="0.3em" style="text-anchor: end; visibility: inherit; font-family: Roboto, sans-serif; font-size: 12px; font-weight: 200;" fill="rgb(33, 33, 33)" stroke="none" stroke-width="1px">0.74</text><text x="0" y="131.99999999999997" dx="0em" dy="0.3em" style="text-anchor: end; visibility: hidden; font-family: Roboto, sans-serif; font-size: 12px; font-weight: 200;" fill="rgb(33, 33, 33)" stroke="none" stroke-width="1px">0.76</text><text x="0" y="115.49999999999997" dx="0em" dy="0.3em" style="text-anchor: end; visibility: inherit; font-family: Roboto, sans-serif; font-size: 12px; font-weight: 200;" fill="rgb(33, 33, 33)" stroke="none" stroke-width="1px">0.78</text><text x="0" y="98.99999999999996" dx="0em" dy="0.3em" style="text-anchor: end; visibility: hidden; font-family: Roboto, sans-serif; font-size: 12px; font-weight: 200;" fill="rgb(33, 33, 33)" stroke="none" stroke-width="1px">0.8</text><text x="0" y="82.50000000000004" dx="0em" dy="0.3em" style="text-anchor: end; visibility: inherit; font-family: Roboto, sans-serif; font-size: 12px; font-weight: 200;" fill="rgb(33, 33, 33)" stroke="none" stroke-width="1px">0.82</text><text x="0" y="66.00000000000004" dx="0em" dy="0.3em" style="text-anchor: end; visibility: hidden; font-family: Roboto, sans-serif; font-size: 12px; font-weight: 200;" fill="rgb(33, 33, 33)" stroke="none" stroke-width="1px">0.84</text><text x="0" y="49.50000000000003" dx="0em" dy="0.3em" style="text-anchor: end; visibility: inherit; font-family: Roboto, sans-serif; font-size: 12px; font-weight: 200;" fill="rgb(33, 33, 33)" stroke="none" stroke-width="1px">0.86</text><text x="0" y="33.000000000000014" dx="0em" dy="0.3em" style="text-anchor: end; visibility: hidden; font-family: Roboto, sans-serif; font-size: 12px; font-weight: 200;" fill="rgb(33, 33, 33)" stroke="none" stroke-width="1px">0.88</text><text x="0" y="16.500000000000014" dx="0em" dy="0.3em" style="text-anchor: end; visibility: inherit; font-family: Roboto, sans-serif; font-size: 12px; font-weight: 200;" fill="rgb(33, 33, 33)" stroke="none" stroke-width="1px">0.9</text><text x="0" y="0" dx="0em" dy="0.3em" style="text-anchor: end; visibility: hidden; font-family: Roboto, sans-serif; font-size: 12px; font-weight: 200;" fill="rgb(33, 33, 33)" stroke="none" stroke-width="1px">0.92</text></g><line x1="51.5625" y1="0" x2="51.5625" y2="165" fill="rgb(0, 0, 0)" stroke="rgb(204, 204, 204)" stroke-width="1px"></line></g></g><g transform="translate(51, 0)" clip-path="url(#clip_0)"><clipPath id="clip_0"><rect width="278" height="165"></rect></clipPath><g><g><g><line x1="0" y1="0" x2="0" y2="165" fill="rgb(0, 0, 0)" stroke="rgb(66, 66, 66)" stroke-width="1px" opacity="0.25"></line><line x1="30.9375" y1="0" x2="30.9375" y2="165" fill="rgb(0, 0, 0)" stroke="rgb(66, 66, 66)" stroke-width="1px" opacity="0.25"></line><line x1="61.875" y1="0" x2="61.875" y2="165" fill="rgb(0, 0, 0)" stroke="rgb(66, 66, 66)" stroke-width="1px" opacity="0.25"></line><line x1="92.8125" y1="0" x2="92.8125" y2="165" fill="rgb(0, 0, 0)" stroke="rgb(66, 66, 66)" stroke-width="1px" opacity="0.25"></line><line x1="123.75" y1="0" x2="123.75" y2="165" fill="rgb(0, 0, 0)" stroke="rgb(66, 66, 66)" stroke-width="1px" opacity="0.25"></line><line x1="154.6875" y1="0" x2="154.6875" y2="165" fill="rgb(0, 0, 0)" stroke="rgb(66, 66, 66)" stroke-width="1px" opacity="0.25"></line><line x1="185.625" y1="0" x2="185.625" y2="165" fill="rgb(0, 0, 0)" stroke="rgb(66, 66, 66)" stroke-width="1px" opacity="0.25"></line><line x1="216.5625" y1="0" x2="216.5625" y2="165" fill="rgb(0, 0, 0)" stroke="rgb(66, 66, 66)" stroke-width="1px" opacity="0.25"></line><line x1="247.5" y1="0" x2="247.5" y2="165" fill="rgb(0, 0, 0)" stroke="rgb(66, 66, 66)" stroke-width="1px" opacity="0.25"></line><line x1="278.4375" y1="0" x2="278.4375" y2="165" fill="rgb(0, 0, 0)" stroke="rgb(66, 66, 66)" stroke-width="1px" opacity="0.25"></line></g><g><line x1="0" y1="165" x2="278.4375" y2="165" fill="rgb(0, 0, 0)" stroke="rgb(66, 66, 66)" stroke-width="1px" opacity="0.25"></line><line x1="0" y1="148.49999999999997" x2="278.4375" y2="148.49999999999997" fill="rgb(0, 0, 0)" stroke="rgb(66, 66, 66)" stroke-width="1px" opacity="0.25"></line><line x1="0" y1="131.99999999999997" x2="278.4375" y2="131.99999999999997" fill="rgb(0, 0, 0)" stroke="rgb(66, 66, 66)" stroke-width="1px" opacity="0.25"></line><line x1="0" y1="115.49999999999997" x2="278.4375" y2="115.49999999999997" fill="rgb(0, 0, 0)" stroke="rgb(66, 66, 66)" stroke-width="1px" opacity="0.25"></line><line x1="0" y1="98.99999999999996" x2="278.4375" y2="98.99999999999996" fill="rgb(0, 0, 0)" stroke="rgb(66, 66, 66)" stroke-width="1px" opacity="0.25"></line><line x1="0" y1="82.50000000000004" x2="278.4375" y2="82.50000000000004" fill="rgb(0, 0, 0)" stroke="rgb(66, 66, 66)" stroke-width="1px" opacity="0.25"></line><line x1="0" y1="66.00000000000004" x2="278.4375" y2="66.00000000000004" fill="rgb(0, 0, 0)" stroke="rgb(66, 66, 66)" stroke-width="1px" opacity="0.25"></line><line x1="0" y1="49.50000000000003" x2="278.4375" y2="49.50000000000003" fill="rgb(0, 0, 0)" stroke="rgb(66, 66, 66)" stroke-width="1px" opacity="0.25"></line><line x1="0" y1="33.000000000000014" x2="278.4375" y2="33.000000000000014" fill="rgb(0, 0, 0)" stroke="rgb(66, 66, 66)" stroke-width="1px" opacity="0.25"></line><line x1="0" y1="16.500000000000014" x2="278.4375" y2="16.500000000000014" fill="rgb(0, 0, 0)" stroke="rgb(66, 66, 66)" stroke-width="1px" opacity="0.25"></line><line x1="0" y1="0" x2="278.4375" y2="0" fill="rgb(0, 0, 0)" stroke="rgb(66, 66, 66)" stroke-width="1px" opacity="0.25"></line></g></g></g><g><g><line x1="0" y1="758.9999999999998" x2="278.4375" y2="758.9999999999998" fill="rgb(0, 0, 0)" stroke="rgb(153, 153, 153)" stroke-width="1.5px"></line></g></g><g><g><line x1="-842288658.75" y1="0" x2="-842288658.75" y2="165" fill="rgb(0, 0, 0)" stroke="rgb(153, 153, 153)" stroke-width="1.5px"></line></g></g><g><g><g><g><g><path stroke="rgb(238, 51, 119)" stroke-width="2px" d="M20.198578124999997,187.62371779580153L21.792375,151.52107581313774L23.390296875,177.38511042725645L24.99028125,155.7218949226236L26.569125000000003,133.8439072446639L28.154671875,120.85908006222404L29.746921875,98.88729755725575L31.340203125000002,81.87973176555965L32.94328125,98.80463165320417L34.540171875,84.43401758032883L36.082921875,87.42587977687805L37.657125,82.77296522779349L39.231843749999996,83.84989892557557L40.848328125,70.31481473278129L42.458625000000005,66.06206719435528L44.06015625,69.95613268981745L45.66271875,76.1597532024075L47.251359375,68.28012320841195L48.8214375,51.950757467110705L50.40234375,46.020426380096204L51.967265624999996,50.196642701161L53.5610625,55.28049429281864L55.138875000000006,78.95582080715981L56.764640625000006,75.11411512512657L58.344515625,59.91846347613885L59.95378125,57.24638999495757L61.507359375,51.775958271352714L63.074859374999996,56.22807531714057L64.67690625,47.297782263845285L66.30576562499999,39.36148163092277L67.936171875,42.33407652965471L69.469125,40.250445896301336L71.01393750000001,42.867455053976556L72.589171875,47.01578554778957L74.143265625,45.637596325603184L75.689625,48.677870299425884L77.28342187499999,37.611409670779764L78.85607812500001,45.15122080609612L80.42512500000001,31.246289492200756" style="fill: none;" fill="none"></path></g><g><path stroke="rgb(0, 153, 136)" stroke-width="2px" d="M106.899890625,24.234375000000032L108.33178124999999,26.248535156250032L109.757484375,26.865114795918352L111.15740625000001,13.808134191176553L112.51453125,29.512285305343617L113.936625,28.64995059495836L115.3741875,21.528104238819832L116.766375,18.695854117087237L118.21734375,23.538187029272205L119.603859375,25.11526067884932L121.066171875,18.292842374553565L122.50476562499999,11.631517670782591L123.89540625000001,20.55149821612265L125.321625,25.896024623117356L126.78084375,21.36204546494993L128.22253125,21.221875235407683L129.623484375,25.005640606323134L131.0079375,18.251135876586268L132.43725,14.19887209731142L133.845421875,5.322123710401383L135.24534375,9.01991784456829" style="fill: none;" fill="none"></path></g><g><path stroke="rgb(187, 187, 187)" stroke-width="2px" d="M163.34175000000002,27.457031249999943L164.8081875,27.457031249999943L166.231828125,27.457031250000032L167.61628125000001,15.609030330882446L169.00640625,30.532084923664147L170.423859375,26.537570383827966L171.831515625,20.28501057194688L173.241234375,19.269575940631032L174.65868749999998,22.577898331705864L176.07820312500002,23.244519804151437L177.48534375,17.173122531929145L178.944046875,9.66878821677681L180.374390625,19.3748872690471L181.809890625,29.06064752649033L183.2551875,23.26022374372744L184.70306250000002,23.649994204767324L186.142171875,26.462347560335285L187.55962499999998,19.125100865744866L188.95903125,16.012370842211148L190.36101562500002,7.6993060665072495L191.76815624999998,11.735297177242272" style="fill: none;" fill="none"></path></g><g><path stroke="rgb(255, 112, 67)" stroke-width="2px" d="M219.6954375,75.79687499999993L221.11340625,75.79687500000001L222.505078125,84.01793686224477L223.89159375,72.83487477022055L225.300796875,81.10833134541978L226.740421875,70.76688320270543L228.12384375000002,67.53207602336778L229.53046875,85.31639131922022L230.99071874999998,73.65670703788899L232.474171875,78.40869517785546L233.939578125,69.59762580643176L235.35496874999998,61.74773798671342L236.781703125,75.11923189107017L238.22854687499998,71.52028134713213L239.63671875,68.07304797090752L241.072734375,75.03172940305761L242.50359375,80.49496238467601L243.9256875,69.59118254339744L245.395734375,66.9170465749586L246.816796875,76.91465597341495L248.329125,70.02207988194746" style="fill: none;" fill="none"></path></g></g></g></g><g opacity="0.2"><g><g><g><path stroke="rgb(238, 51, 119)" stroke-width="2px" d="M16.967156250000002,240.15234374999994L18.573328125,130.58203125L20.198578124999997,159.58593749999997L21.792375,101.578125L23.390296875,214.37109374999994L24.99028125,124.13671875L26.569125000000003,101.578125L28.154671875,101.578125L29.746921875,66.12890625000001L31.340203125000002,56.460937500000014L32.94328125,124.13671875L34.540171875,62.906250000000014L36.082921875,91.91015625000001L37.657125,75.79687500000001L39.231843749999996,85.46484375000001L40.848328125,50.015625000000014L42.458625000000005,59.683593750000014L44.06015625,75.79687500000001L45.66271875,85.46484375000001L47.251359375,56.460937500000014L48.8214375,27.457031250000032L50.40234375,37.125000000000014L51.967265624999996,56.460937500000014L53.5610625,62.906250000000014L55.138875000000006,114.46875L56.764640625000006,69.35156250000001L58.344515625,37.125000000000014L59.95378125,53.238281250000014L61.507359375,43.570312500000014L63.074859374999996,62.906250000000014L64.67690625,33.902343750000014L66.30576562499999,27.457031250000032L67.936171875,46.792968750000014L69.469125,37.125000000000014L71.01393750000001,46.792968750000014L72.589171875,53.238281250000014L74.143265625,43.570312500000014L75.689625,53.238281250000014L77.28342187499999,21.011718750000032L78.85607812500001,56.460937500000014L80.42512500000001,10.388892531394992" style="fill: none;" fill="none"></path></g><g><path stroke="rgb(0, 153, 136)" stroke-width="2px" d="M106.899890625,24.234375000000032L108.33178124999999,27.457031250000032L109.757484375,27.457031250000032L111.15740625000001,-1.5468749999999487L112.51453125,50.015625000000014L113.936625,27.457031250000032L115.3741875,11.343750000000034L116.766375,14.566406250000034L118.21734375,30.679687500000014L119.603859375,27.457031250000032L121.066171875,8.121093750000034L122.50476562499999,1.6757812500000329L123.89540625000001,33.902343750000014L125.321625,33.902343750000014L126.78084375,14.566406250000034L128.22253125,21.011718750000032L129.623484375,30.679687500000014L131.0079375,8.121093750000034L132.43725,8.121093750000034L133.845421875,-7.9921874999999485L135.24534375,14.566406250000034" style="fill: none;" fill="none"></path></g><g><path stroke="rgb(187, 187, 187)" stroke-width="2px" d="M163.34175000000002,27.457031250000032L164.8081875,27.457031250000032L166.231828125,27.457031250000032L167.61628125000001,1.6757812500000329L169.00640625,50.015625000000014L170.423859375,21.011718750000032L171.831515625,11.343750000000034L173.241234375,17.789062500000032L174.65868749999998,27.457031250000032L176.07820312500002,24.234375000000032L177.48534375,8.121093750000034L178.944046875,-1.5468749999999487L180.374390625,33.902343750000014L181.809890625,43.570312500000014L183.2551875,14.566406250000034L184.70306250000002,24.234375000000032L186.142171875,30.679687500000014L187.55962499999998,8.121093750000034L188.95903125,11.343750000000034L190.36101562500002,-4.7695312499999485L191.76815624999998,17.789062500000032" style="fill: none;" fill="none"></path></g><g><path stroke="rgb(255, 112, 67)" stroke-width="2px" d="M219.6954375,75.79687500000001L221.11340625,75.79687500000001L222.505078125,91.91015625000001L223.89159375,59.683593750000014L225.300796875,91.91015625000001L226.740421875,56.460937500000014L228.12384375000002,62.906250000000014L229.53046875,111.24609375L230.99071874999998,56.460937500000014L232.474171875,85.46484375000001L233.939578125,56.460937500000014L235.35496874999998,50.015625000000014L236.781703125,95.13281250000001L238.22854687499998,66.12890625000001L239.63671875,62.906250000000014L241.072734375,85.46484375000001L242.50359375,88.68750000000001L243.9256875,53.238281250000014L245.395734375,62.906250000000014L246.816796875,91.91015625000001L248.329125,59.683593750000014" style="fill: none;" fill="none"></path></g></g></g></g></g></g><g transform="translate(51, 165)" clip-path="url(#clip_1)"><clipPath id="clip_1"><rect width="278" height="35"></rect></clipPath><g><g visibility="inherit"><g><g transform="translate(0,0)" style="visibility: inherit;"><text transform="translate(3,14)" style="text-anchor: start; font-family: Roboto, sans-serif; font-size: 12px; font-weight: 200;" fill="rgb(33, 33, 33)" stroke="none" stroke-width="1px">10:12 PM</text></g><g transform="translate(92.8125,0)" style="visibility: inherit;"><text transform="translate(3,14)" style="text-anchor: start; font-family: Roboto, sans-serif; font-size: 12px; font-weight: 200;" fill="rgb(33, 33, 33)" stroke="none" stroke-width="1px">10:15 PM</text></g><g transform="translate(247.5,0)" style="visibility: hidden;"><text transform="translate(3,14)" style="text-anchor: start; font-family: Roboto, sans-serif; font-size: 12px; font-weight: 200;" fill="rgb(33, 33, 33)" stroke="none" stroke-width="1px">10:20 PM</text></g><g transform="translate(278.4375,0)" style="visibility: hidden;"><text transform="translate(3,14)" style="text-anchor: start; font-family: Roboto, sans-serif; font-size: 12px; font-weight: 200;" fill="rgb(33, 33, 33)" stroke="none" stroke-width="1px">10:21 PM</text></g></g><g><line x1="0" y1="0" x2="0" y2="17" fill="rgb(0, 0, 0)" stroke="rgb(204, 204, 204)" stroke-width="1px"></line><line x1="92.8125" y1="0" x2="92.8125" y2="17" fill="rgb(0, 0, 0)" stroke="rgb(204, 204, 204)" stroke-width="1px"></line><line x1="247.5" y1="0" x2="247.5" y2="17" fill="rgb(0, 0, 0)" stroke="rgb(204, 204, 204)" stroke-width="1px"></line><line x1="278.4375" y1="0" x2="278.4375" y2="17" fill="rgb(0, 0, 0)" stroke="rgb(204, 204, 204)" stroke-width="1px"></line></g><line x1="0" y1="0" x2="278.4375" y2="0" style="visibility: inherit;" fill="rgb(0, 0, 0)" stroke="rgb(204, 204, 204)" stroke-width="1px"></line></g><g visibility="inherit"><g><g transform="translate(139.21875,0)" style="visibility: inherit;"><text transform="translate(0,31)" style="text-anchor: middle; font-family: Roboto, sans-serif; font-size: 12px; font-weight: 200;" fill="rgb(33, 33, 33)" stroke="none" stroke-width="1px">October  6, 2021</text></g></g><g><line x1="0" y1="17" x2="0" y2="34" fill="rgb(0, 0, 0)" stroke="rgb(204, 204, 204)" stroke-width="1px"></line><line x1="278.4375" y1="17" x2="278.4375" y2="34" fill="rgb(0, 0, 0)" stroke="rgb(204, 204, 204)" stroke-width="1px"></line></g><line x1="0" y1="17" x2="278.4375" y2="17" style="visibility: inherit;" fill="rgb(0, 0, 0)" stroke="rgb(204, 204, 204)" stroke-width="1px"></line></g></g></g></g></g></svg>